ply
format ascii 1.0
comment half-edge export
element vertex 24
property float x
property float y
property float z
property float nx
property float ny
property float nz
property float s
property float t
element face 6
property list uint uint vertex_indices
end_header
-1 -1 -1 -0.57735 -0.57735 -0.57735 0.375 0
-1 -1 1 -0.57735 -0.57735 0.57735 0.625 0
-1 1 1 -0.57735 0.57735 0.57735 0.625 0.25
-1 1 -1 -0.57735 0.57735 -0.57735 0.375 0.25
-1 1 -1 -0.57735 0.57735 -0.57735 0.375 0.25
-1 1 1 -0.57735 0.57735 0.57735 0.625 0.25
1 1 1 0.57735 0.57735 0.57735 0.625 0.5
1 1 -1 0.57735 0.57735 -0.57735 0.375 0.5
1 1 -1 0.57735 0.57735 -0.57735 0.375 0.5
1 1 1 0.57735 0.57735 0.57735 0.625 0.5
1 -1 1 0.57735 -0.57735 0.57735 0.625 0.75
1 -1 -1 0.57735 -0.57735 -0.57735 0.375 0.75
1 -1 -1 0.57735 -0.57735 -0.57735 0.375 0.75
1 -1 1 0.57735 -0.57735 0.57735 0.625 0.75
-1 -1 1 -0.57735 -0.57735 0.57735 0.625 1
-1 -1 -1 -0.57735 -0.57735 -0.57735 0.375 1
-1 1 -1 -0.57735 0.57735 -0.57735 0.125 0.5
1 1 -1 0.57735 0.57735 -0.57735 0.375 0.5
1 -1 -1 0.57735 -0.57735 -0.57735 0.375 0.75
-1 -1 -1 -0.57735 -0.57735 -0.57735 0.125 0.75
1 1 1 0.57735 0.57735 0.57735 0.625 0.5
-1 1 1 -0.57735 0.57735 0.57735 0.875 0.5
-1 -1 1 -0.57735 -0.57735 0.57735 0.875 0.75
1 -1 1 0.57735 -0.57735 0.57735 0.625 0.75
4 0 1 2 3
4 4 5 6 7
4 8 9 10 11
4 12 13 14 15
4 16 17 18 19
4 20 21 22 23
